Coordinates
version=1
nRows=7
nColumns=40
inDegrees=yes

Units are S.I. units (second, meters, Newtons, ...)
Angles are in degrees.

endheader
time	pelvis_tilt	pelvis_list	pelvis_rotation	pelvis_tx	pelvis_ty	pelvis_tz	hip_flexion_r	hip_adduction_r	hip_rotation_r	knee_angle_r	knee_angle_r_beta	ankle_angle_r	subtalar_angle_r	mtp_angle_r	hip_flexion_l	hip_adduction_l	hip_rotation_l	knee_angle_l	knee_angle_l_beta	ankle_angle_l	subtalar_angle_l	mtp_angle_l	lumbar_extension	lumbar_bending	lumbar_rotation	arm_flex_r	arm_add_r	arm_rot_r	elbow_flex_r	pro_sup_r	wrist_flex_r	wrist_dev_r	arm_flex_l	arm_add_l	arm_rot_l	elbow_flex_l	pro_sup_l	wrist_flex_l	wrist_dev_l
     50.64500000	     -6.69925288	     -8.01851206	      1.87419535	      0.94285397	      0.90895321	      0.47093996	     -0.98762426	      5.70927769	    -15.37585432	      9.93664214	      9.93664214	     18.88255666	      5.73785243	     -1.45179849	     37.22425448	    -10.73774641	      1.27366038	     23.25957837	     23.25957837	      4.20987113	    -11.47412836	     10.83464219	     -9.38601895	      6.32490378	      4.08627346	     48.23872456	    -16.08795739	      5.19317215	     88.14133756	     44.42313591	      0.00000000	      0.00000000	    -19.44284816	     -7.61914427	      5.70553383	     29.14082069	     44.82602674	      0.00000000	      0.00000000
     50.65607143	     -6.70354283	     -7.91378237	      1.80798937	      0.94462178	      0.90726138	      0.46832331	     -1.41307291	      5.36658075	    -15.08743597	     10.45312991	     10.45312991	     19.50740452	      5.39605473	     -1.40447965	     36.88831951	    -10.62544041	      0.55851439	     23.57564051	     23.57564051	      3.43306649	    -11.81192977	      9.97592074	     -9.17622486	      6.22952842	      3.86011334	     48.44273771	    -15.41098720	      4.59107208	     89.46132202	     44.41386324	      0.00000000	      0.00000000	    -20.27935829	     -7.35061712	      5.86446279	     28.72454037	     44.80320574	      0.00000000	      0.00000000
     50.66714286	     -6.68592145	     -7.73066048	      1.74035079	      0.94639190	      0.90595338	      0.46552000	     -1.93544201	      4.93321835	    -14.82915437	     10.79909152	     10.79909152	     19.83842026	      5.23346750	     -1.44591423	     36.64480385	    -10.42639291	     -0.01683221	     24.31855817	     24.31855817	      3.06114253	    -12.24977286	      9.66889163	     -8.92736696	      6.06700995	      3.81267984	     48.52011962	    -15.28902715	      4.31532604	     89.95394964	     44.41054528	      0.00000000	      0.00000000	    -20.89491942	     -7.11655164	      5.92997421	     28.43953921	     44.78735358	      0.00000000	      0.00000000
     50.67821429	     -6.68761147	     -7.60804483	      1.75944541	      0.94770675	      0.90461780	      0.46262725	     -1.87807010	      4.44904512	    -14.53526068	     12.17415092	     12.17415092	     20.44086915	      4.36943105	     -1.56445732	     36.59501612	    -10.25817616	     -0.40101390	     25.34782668	     25.34782668	      2.58571856	    -12.63296328	      8.35061891	     -8.84328042	      6.02340653	      3.40262443	     48.39314545	    -14.28585578	      3.43222333	     91.81341448	     44.38974056	      0.00000000	      0.00000000	    -21.21688486	     -6.83445462	      6.07746157	     27.88881544	     44.77406994	      0.00000000	      0.00000000
     50.68928571	     -6.72064699	     -7.36853112	      1.73438148	      0.94898174	      0.90379289	      0.45967682	     -1.79634956	      3.85156234	    -14.08868381	     13.48841401	     13.48841401	     20.79644561	      3.39682039	     -1.59096508	     36.46090599	     -9.98252399	     -0.76253676	     26.28153429	     26.28153429	      2.05833145	    -13.11553531	      6.53038913	     -8.71124693	      5.74990436	      3.56990650	     47.56490968	    -13.88765036	      1.87255699	     93.83676377	     44.39274096	      0.00000000	      0.00000000	    -21.12855558	     -6.66017252	      6.25394004	     27.02372232	     44.77610525	      0.00000000	      0.00000000
     50.70035714	     -6.60789044	     -7.18563440	      1.78121080	      0.95004876	      0.90349723	      0.45649949	     -1.76274375	      3.26753617	    -13.83163289	     14.96329982	     14.96329982	     20.95570607	      2.67819188	     -1.89994818	     36.26801687	     -9.70825924	     -0.89628288	     27.40004395	     27.40004395	      2.20843137	    -13.49660255	      5.63243507	     -8.78291501	      5.64276114	      3.45838559	     47.14080865	    -13.59351206	      1.16713092	     95.09702367	     44.38604864	      0.00000000	      0.00000000	    -20.83705507	     -6.42994469	      6.42390234	     26.46771903	     44.77162951	      0.00000000	      0.00000000
     50.71142857	     -6.41060201	     -6.99361807	      1.80411383	      0.95105141	      0.90372760	      0.45333409	     -1.66963428	      2.63540945	    -13.61300059	     16.69305204	     16.69305204	     20.92633391	      1.92150103	     -2.32234971	     35.94332448	     -9.42676408	     -0.97311971	     28.48980000	     28.48980000	      2.69208707	    -13.77536950	      5.05410376	     -8.98221923	      5.46397673	      3.32071362	     46.56722183	    -13.27951483	      0.67929701	     96.05776571	     44.37692195	      0.00000000	      0.00000000	    -20.60004439	     -6.33163089	      6.54768751	     25.99909959	     44.76789709	      0.00000000	      0.00000000
